# xmcd
#
# Track frame offsets:
#	150
#	12223
#	24330
#	38306
#	49213
#	64558
#	78886
#	92238
#	105917
#	118824
#	133528
#	146639
#	157842
#	170713
#	181097
#	191862
#	203205
#	214787
#	229126
#	242947
#	256258
#	270040
#	282187
#	294319
#
# Disc length: 4087 seconds
# Revision: 0
# Processed by: cddbd v1.5.2PL0 Copyright (c) Steve Scherf et al.
# Submitted via: dBpowerAMP V12.0
#
DISCID=420ff518
DTITLE=Various Artist - Rhythm and Blues Hits 1952-1953
DYEAR=1952
DGENRE=Rhythm and Blues
TTITLE0=Earl Bostic - Flamingo
TTITLE1=Howlin' Wolf - How Many More Years
TTITLE2=B.B. King - Three O'Clock In The Morning
TTITLE3=Wynonie Harris - Lovin' Machine
TTITLE4=Griffin Brothers (with Tommy Brown) - Weepin' And Cryin'
TTITLE5=Rosco Gordon - Booted
TTITLE6=Lightnin' Hopkins - Give Me Central 209 (Hello Central)
TTITLE7=Jimmy Forrest - Night Train
TTITLE8=Dinah Washington - Trouble In Mind
TTITLE9=Ruth Brown - 5-10-15 Hours
TTITLE10=Big Joe Turner - Sweet Sixteen
TTITLE11=The Clovers - One Mint Julep
TTITLE12=Sonny Thompson (with Lula Reed) - I'll Drown In My Tears
TTITLE13=Fats Domino - Goin' Home
TTITLE14=Billy Ward and The Dominoes - Have Mercy Baby
TTITLE15=Lloyd Price - Lawdy Miss Clawdy
TTITLE16=The Four Blazes - Mary Jo
TTITLE17=The Clovers - Ting-A-Ling
TTITLE18=Johnny Ace - My Song
TTITLE19=Ruth Brown - Daddy, Daddy
TTITLE20=B.B. King - You Know I Love You
TTITLE21=Little Walter - Juke
TTITLE22=Eddie Boyd - Five Long Years
TTITLE23=Illinois Jacquet - Port Of Rico
EXTD=
EXTT0=
EXTT1=
EXTT2=
EXTT3=
EXTT4=
EXTT5=
EXTT6=
EXTT7=
EXTT8=
EXTT9=
EXTT10=
EXTT11=
EXTT12=
EXTT13=
EXTT14=
EXTT15=
EXTT16=
EXTT17=
EXTT18=
EXTT19=
EXTT20=
EXTT21=
EXTT22=
EXTT23=
PLAYORDER=
